<svg xmlns="http://www.w3.org/2000/svg" xmlns:xlink="http://www.w3.org/1999/xlink" viewBox="0 0 60.53 57.82"><defs><style>.cls-1{isolation:isolate;}.cls-2{fill:#6f92cc;}.cls-3{fill:#417cc0;}.cls-4{fill:#5d95cf;}.cls-5{opacity:0.7;mix-blend-mode:multiply;fill:url(#linear-gradient);}</style><linearGradient id="linear-gradient" x1="39.84" y1="20.76" x2="55.95" y2="4.65" gradientUnits="userSpaceOnUse"><stop offset="0" stop-color="#417cc0" stop-opacity="0.96"/><stop offset="0.17" stop-color="#558ac7" stop-opacity="0.89"/><stop offset="0.48" stop-color="#8cafd9" stop-opacity="0.7"/><stop offset="0.88" stop-color="#e3ecf6" stop-opacity="0.4"/><stop offset="1" stop-color="#fff" stop-opacity="0.3"/></linearGradient></defs><title>favicon</title><g class="cls-1"><g id="레이어_1" data-name="레이어 1"><path class="cls-2" d="M56,4.65A11.39,11.39,0,0,0,39.84,20.76l8,8,8.06-8A11.41,11.41,0,0,0,56,4.65"/><path class="cls-3" d="M25.08,19.74V12.89a11.39,11.39,0,1,0-22.78,0V44.73h0a11.39,11.39,0,0,0,22.78,0h0V37.88a15.62,15.62,0,0,1,0-18.14"/><path class="cls-4" d="M39.84,4.65,26.75,17.74a15.64,15.64,0,0,0,0,22.14L39.84,53A11.39,11.39,0,0,0,56,36.86l-8.06-8-8-8a11.39,11.39,0,0,1,0-16.11"/><path class="cls-5" d="M56,4.65A11.39,11.39,0,0,0,39.84,20.76l8,8,8.06-8A11.41,11.41,0,0,0,56,4.65"/></g></g></svg>