<svg xmlns="http://www.w3.org/2000/svg" xmlns:xlink="http://www.w3.org/1999/xlink" viewBox="0 0 203.1 201.3"><defs><style>.cls-1{fill:url(#linear-gradient);}.cls-2{fill:#00b085;}.cls-3{fill:#007dc3;}.cls-4{fill:#ef3e42;}.cls-5{fill:#f58025;}.cls-6{fill:url(#linear-gradient-2);}.cls-7{fill:#231f20;}.cls-8,.cls-9{fill:none;stroke:#182a33;}.cls-8{stroke-width:0.7px;}.cls-9{stroke-width:2px;}.cls-10{fill:#182a33;}</style><linearGradient id="linear-gradient" x1="97.88" y1="91.11" x2="138.36" y2="91.11" gradientUnits="userSpaceOnUse"><stop offset="0" stop-color="#00853f"/><stop offset="0.05" stop-color="#118e40"/><stop offset="0.16" stop-color="#329d41"/><stop offset="0.27" stop-color="#4caa41"/><stop offset="0.4" stop-color="#61b442"/><stop offset="0.55" stop-color="#6fbc43"/><stop offset="0.72" stop-color="#77c043"/><stop offset="1" stop-color="#7ac143"/></linearGradient><linearGradient id="linear-gradient-2" x1="64.6" y1="109.6" x2="105.07" y2="109.6" gradientUnits="userSpaceOnUse"><stop offset="0" stop-color="#fdb913"/><stop offset="0.27" stop-color="#fbb613"/><stop offset="0.45" stop-color="#f4ad13"/><stop offset="0.61" stop-color="#e89e12"/><stop offset="0.75" stop-color="#d78912"/><stop offset="0.88" stop-color="#c16d11"/><stop offset="1" stop-color="#a84d10"/></linearGradient></defs><title>ft_logo</title><path class="cls-1" d="M132.5,72.74h0l-.07-.13c-6.21,3.15-12.55,6.34-18.25,10.62-4,3-8,6.53-10.11,12.23v0c-2.78,6.49-4.43,12.85-6.18,14.19,0,0,4.51-4,5.36-4.73A181.31,181.31,0,0,1,120.12,92.2a176.65,176.65,0,0,1,18.24-10.61Z"/><path class="cls-2" d="M140.51,84.83l-.09-.12A178.85,178.85,0,0,0,105.31,108l6,9a180.52,180.52,0,0,1,35.12-23.3l-5.87-8.85"/><path class="cls-3" d="M148.08,96.26l-.08-.12a178.85,178.85,0,0,0-35.11,23.3l6,9A179.4,179.4,0,0,1,154,105.11l-5.87-8.85"/><path class="cls-4" d="M54.9,104.45l.07.12A179.7,179.7,0,0,0,73.22,94,179.84,179.84,0,0,0,90.09,81.28l-6-9A181.6,181.6,0,0,1,67.27,85,180.79,180.79,0,0,1,49,95.6l5.87,8.85"/><path class="cls-5" d="M62.75,116.3l.08.12a183.85,183.85,0,0,0,18.25-10.61A182.59,182.59,0,0,0,98,93.12l-6-9A181,181,0,0,1,75.13,96.83a179.8,179.8,0,0,1-18.25,10.62l5.87,8.85"/><path class="cls-6" d="M105.07,91.1s-4.5,4-5.35,4.73a180.72,180.72,0,0,1-16.87,12.68A177.94,177.94,0,0,1,64.6,119.13L70.47,128h0l.08.12A130.29,130.29,0,0,0,88.8,117.48c4-2.94,7.92-6.53,10.1-12.23v0C101.68,98.8,103.33,92.43,105.07,91.1Z"/><path class="cls-7" d="M29.4,119.7l-10.83,2.14-.32-1.6,6.62-4.84-7.29,1.45-.3-1.54,10.82-2.15.33,1.67L22,119.58l7.13-1.42Z"/><path class="cls-7" d="M27.24,104.14,27.4,106l-2.44.94.29,3.38,2.56.48.15,1.79-11.27-2.29-.15-1.77Zm-4.09,3.48-4,1.51,4.17.78Z"/><path class="cls-7" d="M27.33,102.49l-9.17,0v2.47H16.28l0-6.62h1.86v2.47l9.17,0Z"/><path class="cls-7" d="M27.47,97.46l-11-.82L16.59,95l11,.81Z"/><path class="cls-7" d="M22.2,93.87a9,9,0,0,1-2.74-.82,5.23,5.23,0,0,1-1.38-1,3.33,3.33,0,0,1-.81-1.22A3.7,3.7,0,0,1,17.11,89a3.52,3.52,0,0,1,2-2.7,7.12,7.12,0,0,1,4.34-.45,7,7,0,0,1,4,1.75,3.48,3.48,0,0,1,1,3.15,3.54,3.54,0,0,1-2,2.71A6.93,6.93,0,0,1,22.2,93.87Zm.2-1.74a5,5,0,0,0,2.92-.21,2,2,0,0,0,1.21-1.5,1.93,1.93,0,0,0-.69-1.8,5.22,5.22,0,0,0-2.75-1.09,5.11,5.11,0,0,0-2.91.19A2,2,0,0,0,19,89.24a2,2,0,0,0,.67,1.82A5.11,5.11,0,0,0,22.4,92.13Z"/><path class="cls-7" d="M29.1,85.68,18.46,82.74l.44-1.58L27,79.81l-7.17-2,.42-1.51,10.63,2.94-.45,1.63-7.91,1.34,7,1.94Z"/><path class="cls-7" d="M34.17,70.75l-.67,1.68-2.6-.24-1.26,3.14,2.08,1.58-.67,1.67-9-7.09.65-1.65ZM29,72l-4.23-.42,3.38,2.56Z"/><path class="cls-7" d="M34.51,70.18l-9.7-5.05.78-1.5,8.05,4.19,1.93-3.72,1.66.86Z"/><path class="cls-7" d="M39.39,61.56l-9.17-6.13.93-1.4,9.18,6.13Z"/><path class="cls-7" d="M41.09,58.94l-8.68-6.81,1-1.29,8,1.87-5.84-4.59,1-1.23,8.68,6.82-1,1.33-7.83-1.82,5.72,4.49Z"/><path class="cls-7" d="M43.33,50.39l1-1.33a2.89,2.89,0,0,0,1.56.68A1.8,1.8,0,0,0,47.63,48a1.52,1.52,0,0,0-.47-1,1.14,1.14,0,0,0-.59-.33,1.37,1.37,0,0,0-.77.1q-.3.12-1.29.63a4.06,4.06,0,0,1-2.1.59,3.32,3.32,0,0,1-2.13-1,3.45,3.45,0,0,1-.87-1.36,2.48,2.48,0,0,1-.08-1.52,3.22,3.22,0,0,1,.87-1.45,3,3,0,0,1,2.31-1,3.8,3.8,0,0,1,2.34,1.11L43.73,44a2.29,2.29,0,0,0-1.21-.53,1.42,1.42,0,0,0-1,.5A1.55,1.55,0,0,0,41,45a.9.9,0,0,0,.3.67A1,1,0,0,0,42,46a3.77,3.77,0,0,0,1.6-.59,6.67,6.67,0,0,1,1.83-.74,2.78,2.78,0,0,1,1.45.12,4,4,0,0,1,1.49,1,4,4,0,0,1,1,1.53A2.67,2.67,0,0,1,49.43,49a3.59,3.59,0,0,1-1,1.58,3.05,3.05,0,0,1-2.39,1.07A4.81,4.81,0,0,1,43.33,50.39Z"/><path class="cls-7" d="M53,46l-5.91-7-1.88,1.59L44,39.19,49,34.92l1.2,1.43-1.89,1.59,5.91,7Z"/><path class="cls-7" d="M56.89,42.87,50.37,34l1.36-1,6.52,8.9Z"/><path class="cls-7" d="M61,40l-4.91-7.75L54,33.58,53,32l5.59-3.55,1,1.58L57.5,31.36l4.91,7.75Z"/><path class="cls-7" d="M60.31,27.48l1.51-.75,2.68,5.35a15.56,15.56,0,0,0,.88,1.62,1.88,1.88,0,0,0,1,.75,1.52,1.52,0,0,0,1.18-.13,1.41,1.41,0,0,0,.79-.83,1.72,1.72,0,0,0,0-1.05,16.08,16.08,0,0,0-.77-1.72l-2.74-5.46,1.51-.76,2.6,5.2A19.09,19.09,0,0,1,70,32.27a3.69,3.69,0,0,1,.17,1.47A2.64,2.64,0,0,1,69.69,35a3.35,3.35,0,0,1-1.28,1,3.53,3.53,0,0,1-1.79.48,2.77,2.77,0,0,1-1.3-.41,3.42,3.42,0,0,1-1-.88A17.62,17.62,0,0,1,63,32.75Z"/><path class="cls-7" d="M74.36,33.13,71.1,24.56l-2.3.87-.67-1.74,6.19-2.35L75,23.08,72.68,24l3.25,8.57Z"/><path class="cls-7" d="M79.08,31.4l-2.9-10.65,6-1.63.49,1.8-4.36,1.19.65,2.36,4-1.1.49,1.8-4,1.1.78,2.88,4.51-1.23.49,1.81Z"/><path class="cls-7" d="M89.47,28.92,88.08,18l5.7-.73L94,19.11l-4,.51.33,2.58,3.46-.44L94,23.62l-3.47.43.59,4.66Z"/><path class="cls-7" d="M95.82,22.64a9.12,9.12,0,0,1,.33-2.84,5.22,5.22,0,0,1,.76-1.53,3.51,3.51,0,0,1,1.06-1,3.65,3.65,0,0,1,1.8-.47,3.5,3.5,0,0,1,3,1.46,7,7,0,0,1,1.2,4.19,7,7,0,0,1-1,4.21,3.67,3.67,0,0,1-5.93.13A6.92,6.92,0,0,1,95.82,22.64Zm1.75-.11a5.06,5.06,0,0,0,.71,2.84,2,2,0,0,0,1.7.94,2,2,0,0,0,1.65-1,5.15,5.15,0,0,0,.59-2.9,5,5,0,0,0-.69-2.82,1.94,1.94,0,0,0-1.7-.91,2,2,0,0,0-1.68,1A5.09,5.09,0,0,0,97.57,22.53Z"/><path class="cls-7" d="M105.09,28l1-11,3.54.34a4.87,4.87,0,0,1,1.91.48,2.23,2.23,0,0,1,.87,1.15,4,4,0,0,1,.2,1.76,3.59,3.59,0,0,1-.75,2,2.45,2.45,0,0,1-1.73.85,4.73,4.73,0,0,1,.81,1,13.37,13.37,0,0,1,.77,1.88l.81,2.24-2-.19-1-2.51a14.93,14.93,0,0,0-.74-1.7,1.29,1.29,0,0,0-.46-.51,2,2,0,0,0-.84-.2l-.35,0-.44,4.6Zm2.28-6.19,1.25.13a5.21,5.21,0,0,0,1.52,0,1,1,0,0,0,.51-.42,1.72,1.72,0,0,0,.25-.81,1.63,1.63,0,0,0-.13-.91,1,1,0,0,0-.6-.49,10.74,10.74,0,0,0-1.22-.16l-1.31-.12Z"/><path class="cls-7" d="M116.34,29.48,119,18.86l1.64.4-2.16,8.81,4.07,1-.45,1.81Z"/><path class="cls-7" d="M123,31.23l3.34-10.52,1.6.51-3.34,10.52Z"/><path class="cls-7" d="M126,32.18l4-10.27L135.41,24l-.69,1.73L131,24.27,130,26.69,133.24,28l-.68,1.74-3.25-1.28-1.72,4.37Z"/><path class="cls-7" d="M132.42,34.76l5-9.83L143,27.75l-.85,1.66-4-2.05L137,29.54l3.73,1.91-.85,1.66-3.73-1.91-1.36,2.66L138.93,36l-.84,1.66Z"/><path class="cls-7" d="M139.14,38.29l5.9-9.21,1.42.91-4.89,7.64,3.53,2.26-1,1.57Z"/><path class="cls-7" d="M148,37.52a8.71,8.71,0,0,1,2.07-2,5.71,5.71,0,0,1,1.56-.7,3.42,3.42,0,0,1,1.47-.09,3.68,3.68,0,0,1,1.69.79,3.48,3.48,0,0,1,1.36,3,7,7,0,0,1-1.77,4,6.93,6.93,0,0,1-3.48,2.57,3.68,3.68,0,0,1-4.64-3.71A6.94,6.94,0,0,1,148,37.52Zm1.41,1a5,5,0,0,0-1.27,2.64,2,2,0,0,0,.7,1.8,1.93,1.93,0,0,0,1.9.3,5.27,5.27,0,0,0,2.32-1.85,5.13,5.13,0,0,0,1.28-2.61,2,2,0,0,0-2.64-2.1A5.06,5.06,0,0,0,149.42,38.55Z"/><path class="cls-7" d="M151.68,47.58l7.85-7.76L160.68,41l-2.86,7.69,5.29-5.23,1.1,1.11-7.85,7.76-1.19-1.21L158,43.58l-5.17,5.11Z"/><path class="cls-7" d="M163,54l1.47-1.15,2.24,2.86-3.47,2.72a4.54,4.54,0,0,1-1.89-.48,4.6,4.6,0,0,1-1.67-1.29,3.73,3.73,0,0,1-.84-2.25,4.46,4.46,0,0,1,.73-2.45,8.52,8.52,0,0,1,2-2.2,7.91,7.91,0,0,1,2.75-1.46,4.38,4.38,0,0,1,2.61,0,3.44,3.44,0,0,1,1.67,1.24,3.31,3.31,0,0,1,.83,2.45,4.2,4.2,0,0,1-1.17,2.35l-1.37-1.07a2.51,2.51,0,0,0,.6-1.31,1.73,1.73,0,0,0-.39-1.25,2,2,0,0,0-1.81-.81,4.7,4.7,0,0,0-2.57,1.19,5.28,5.28,0,0,0-1.92,2.34,2.06,2.06,0,0,0,.3,2,2.48,2.48,0,0,0,.88.67,3.53,3.53,0,0,0,1.1.32l1.1-.87Z"/><path class="cls-7" d="M164.41,63.07,174,57.65l3,5.41-1.62.91L173.23,60l-2.13,1.2,2.05,3.65-1.62.92-2.06-3.66-2.6,1.47,2.29,4.07-1.63.92Z"/><path class="cls-7" d="M178.19,65.28l1.22,2.84a4.69,4.69,0,0,1,.44,1.55,2.84,2.84,0,0,1-.43,1.56,5.11,5.11,0,0,1-1.33,1.44A10.27,10.27,0,0,1,175.81,74a9.88,9.88,0,0,1-2.26.7,5.42,5.42,0,0,1-2.15-.06,2.94,2.94,0,0,1-1.28-.74,4,4,0,0,1-.81-1.28l-1.26-2.92Zm-1.05,2.29-6.7,2.89.5,1.17a3.44,3.44,0,0,0,.5.9,1.44,1.44,0,0,0,.69.45,2.67,2.67,0,0,0,1.16,0,10.12,10.12,0,0,0,1.92-.64,8.36,8.36,0,0,0,1.73-.94,2.59,2.59,0,0,0,.79-.86,1.48,1.48,0,0,0,.17-.92,5.74,5.74,0,0,0-.46-1.33Z"/><path class="cls-7" d="M181.76,73.94l.5,1.62-5.72,1.75a14.71,14.71,0,0,0-1.75.61,1.91,1.91,0,0,0-.89.81,1.49,1.49,0,0,0-.06,1.18,1.39,1.39,0,0,0,.69.92,1.59,1.59,0,0,0,1,.14,14.9,14.9,0,0,0,1.81-.48l5.84-1.79.5,1.61L178.17,82a22.15,22.15,0,0,1-2.73.69,3.71,3.71,0,0,1-1.47-.08,2.69,2.69,0,0,1-1.15-.67,3.39,3.39,0,0,1-.79-1.44,3.57,3.57,0,0,1-.18-1.84,2.83,2.83,0,0,1,.62-1.22,3.49,3.49,0,0,1,1-.81,17.39,17.39,0,0,1,2.63-1Z"/><path class="cls-7" d="M178.54,89.53l-.34,1.74a5.25,5.25,0,0,1-2.9-.74,3,3,0,0,1-1.29-2,3.29,3.29,0,0,1,1-3,6.86,6.86,0,0,1,3.84-1.83,7.27,7.27,0,0,1,4.41.26,3.38,3.38,0,0,1,2,2.53,3.07,3.07,0,0,1-.71,2.69,4.71,4.71,0,0,1-1.83,1.23l-.83-1.56a2.49,2.49,0,0,0,1.21-.87,1.56,1.56,0,0,0,.27-1.22,1.77,1.77,0,0,0-1.15-1.34,5.4,5.4,0,0,0-2.91,0,5.8,5.8,0,0,0-2.82,1.12,1.73,1.73,0,0,0-.6,1.64,1.48,1.48,0,0,0,.78,1A3.81,3.81,0,0,0,178.54,89.53Z"/><path class="cls-7" d="M175.56,100.57l-.14-1.8,2.45-.92-.27-3.38-2.55-.5-.14-1.8,11.25,2.38.14,1.77Zm4.12-3.43,4-1.49-4.17-.81Z"/><path class="cls-7" d="M175.46,102.22l9.17.13,0-2.47,1.87,0-.09,6.62-1.87,0,0-2.47-9.17-.12Z"/><path class="cls-7" d="M175.28,107.26l11,.9-.14,1.68-11-.9Z"/><path class="cls-7" d="M180.52,110.89a9,9,0,0,1,2.74.84,5.38,5.38,0,0,1,1.36,1,3.45,3.45,0,0,1,.81,1.23,3.67,3.67,0,0,1,.14,1.85,3.51,3.51,0,0,1-2,2.69,6.93,6.93,0,0,1-4.34.41,7,7,0,0,1-4-1.77,3.68,3.68,0,0,1,1-5.86A6.88,6.88,0,0,1,180.52,110.89Zm-.21,1.73a5.09,5.09,0,0,0-2.92.19,2,2,0,0,0-1.23,1.5,2,2,0,0,0,.68,1.8,5.22,5.22,0,0,0,2.74,1.11,5,5,0,0,0,2.91-.17,2,2,0,0,0,.54-3.33A5.15,5.15,0,0,0,180.31,112.62Z"/><path class="cls-7" d="M173.56,119l10.61,3-.45,1.58-8.1,1.29,7.16,2-.43,1.51-10.62-3,.47-1.63,7.92-1.28-7-2Z"/><circle class="cls-8" cx="101.9" cy="100.71" r="92.89" transform="translate(-22.32 172.08) rotate(-74.54)"/><path class="cls-9" d="M199.07,100.71A97.17,97.17,0,1,1,101.9,3.54,97.16,97.16,0,0,1,199.07,100.71Z"/><circle class="cls-10" cx="31.7" cy="135.38" r="2.78" transform="translate(-107.21 141.26) rotate(-79.25)"/><path class="cls-10" d="M172.32,140.52a2.79,2.79,0,1,1-2.79-2.79A2.79,2.79,0,0,1,172.32,140.52Z"/><path class="cls-7" d="M43.31,151.08a21.07,21.07,0,0,0,3.9-2.43L42.6,143,44,141.84l6,7.34a32.63,32.63,0,0,1-5.4,3.54l2.28,2.78-1.38,1.13-4.08-5-1.93,1.58,2.31,2.82L37.09,160l-1.35-1.65,3.36-2.76-4.84-5.91,1.4-1.15,2.46,3,1.93-1.58-4.11-5,1.38-1.13Z"/><path class="cls-7" d="M46.8,160.81l-.22-2a12.84,12.84,0,0,0,4.87.28,7,7,0,0,0,4.12-1.92l-3.87-3.05,1.14-1.45,5.75,4.53a11.14,11.14,0,0,1-5.32,3.55A12.33,12.33,0,0,1,46.8,160.81ZM59.49,163l1.82,1.44-1.12,1.41-1.82-1.43-5,6.29-1.65-1.3,9.13-11.57,1.65,1.3Z"/><path class="cls-7" d="M70.17,166.05l-2.33,4.7c1,.4,1.87.77,2.63,1.05l-.79,1.62c-1.46-.54-5.32-2.19-6.8-2.91l-2.51-1.23.8-1.62,1.57.77,2.33-4.87-1.24-.6.78-1.61L72.17,165l-.79,1.61Zm-.31,12.86A4.07,4.07,0,1,1,68,173.55,4,4,0,0,1,69.86,178.91Zm-4.62.07A2.12,2.12,0,0,0,68,178a2,2,0,0,0-.82-2.77,2.07,2.07,0,0,0-2.72,1A2,2,0,0,0,65.24,179Zm3.14-13.8-1.52-.74-2.33,4.86L66,170ZM73.27,168l1.22-2.51,1.9.92-4.54,9.31-1.9-.93,1.48-3-2.31-1.13.74-1.52,2.31,1.13.35-.72-2.29-1.12.74-1.52Z"/><path class="cls-7" d="M76.69,176.7l-1-1.62a8.11,8.11,0,0,0,3.12-2.29,9.21,9.21,0,0,0,1.41-3.1l.32-1.35,2.09.5-.32,1.35a8.65,8.65,0,0,0-.16,3.17,7.33,7.33,0,0,0,1.54,3.1l-1.41,1.17a11.08,11.08,0,0,1-1.34-2,9,9,0,0,1-.62-1.48A7.93,7.93,0,0,1,79,175.34,8.63,8.63,0,0,1,76.69,176.7Zm10.86,7.24A4.07,4.07,0,0,1,79.64,182a4.07,4.07,0,0,1,7.91,1.91Zm-2-.5a2,2,0,0,0-1.4-2.53,2.07,2.07,0,0,0-2.43,1.61A2,2,0,0,0,83.06,185,2.11,2.11,0,0,0,85.5,183.44Zm2.88-9.84.9-3.75,2,.49L89,180.05l-2-.49,1-4.1-1.51-.36-.87,3.62-2-.47,2.18-9,2,.47-.85,3.55Z"/><path class="cls-7" d="M95.89,181.62l.1-4.71,2,0-.09,4.71,1.77,0,.09-4.71,2,0-.09,4.71,5.65.11,0,1.84-15.05-.29,0-1.84Zm8.73-1.24-2.06,0a48,48,0,0,0,.57-6.83l-8.06-.16,0-1.84,10.19.2A84.51,84.51,0,0,1,104.62,180.38Z"/><path class="cls-7" d="M113.94,179.64l-4.53.9-.34-1.75,15-3,.35,1.76-4.31.85.35,1.77,1.52-.3,1.12,5.65L121,186l-.77-3.88-7.5,1.49-.35-1.77,2-.39Zm.89-10.79a4,4,0,1,1-3.32,4.75A4.11,4.11,0,0,1,114.83,168.85Zm-1.29,4.34a2.12,2.12,0,1,0,4.15-.82,2.21,2.21,0,0,0-2.51-1.75A2.19,2.19,0,0,0,113.54,173.19Zm2.49,6,.35,1.77,1.94-.38-.35-1.77Z"/><path class="cls-7" d="M127,168.69l-2.68,1.17-.72-1.66L131,165l.72,1.65-2.67,1.17.26.61a5.16,5.16,0,0,0,2.1,2.31,10.11,10.11,0,0,0,3.3.89l-.4,1.83a8.56,8.56,0,0,1-2.62-.47,10.28,10.28,0,0,1-1.92-.91,6,6,0,0,1-.47,1.95A9.51,9.51,0,0,1,128,176.7l-1.82-.8a9.53,9.53,0,0,0,1.5-3.44,5.84,5.84,0,0,0-.34-3.12Zm4,8.17,2-.85,1.46,3.34,6.85-3,.74,1.69-8.81,3.83Zm6.87-2-5-11.48,1.94-.84,5,11.48Z"/><path class="cls-7" d="M143.69,157.4,147,155l1,1.38-1.66,1.21a2.65,2.65,0,0,1,1.66,1.05,4,4,0,0,1-6.39,4.64,2.74,2.74,0,0,1-.51-1.89l-1.66,1.2-1-1.38,3.36-2.44-.9-1.25,1.85-1.34Zm-1.59,12.71-1-1.4,12.37-9,1,1.4Zm4.2-10.24a1.8,1.8,0,1,0-.42,2.51A1.78,1.78,0,0,0,146.3,159.87Zm2.46,6.31a3.65,3.65,0,1,1-1.23,5.36A3.94,3.94,0,0,1,148.76,166.18Zm3.2,4.51a2,2,0,0,0,.53-2.75,1.93,1.93,0,0,0-2.73-.37,2,2,0,0,0-.53,2.74A1.93,1.93,0,0,0,152,170.69Z"/><path class="cls-7" d="M152.05,154.66a4.07,4.07,0,1,1,5.43-.6A4,4,0,0,1,152.05,154.66Zm3.92-4.43a1.87,1.87,0,1,0,.25,2.71A2,2,0,0,0,156,150.23Zm2.35,6.08-.31.36-2.43,2.77-1.29-1.15,2-2.28c1.46-1.65,4-4.91,4.89-6.21l1.27,1.12c-.53.8-1.65,2.27-2.76,3.72l1.72,1.52L160,157.79Zm6.45-4.15-2.27,2.57-1.24-1.1,2.28-2.57-7.48-6.62,1.4-1.59,9.77,8.66-1.4,1.58Zm-4.23,6.09,1.42-1.59,2.06,1.82L169,152.9l1.38,1.22L164,161.3Z"/></svg>