<svg id="Layer_1" data-name="Layer 1" xmlns="http://www.w3.org/2000/svg" viewBox="0 0 132.67 183.33"><defs><style>.cls-1{fill:#fff;}.cls-2{fill:#003863;}.cls-3{fill:#e4032e;}</style></defs><title>Artboard 1</title><path class="cls-1" d="M18.89,172.53V161.07h4.34v11.46h6.16V161.07h4.38v11.46h11v4H10.83v-4ZM37.41,166v-17.7H13.56v-4.09H42V166Z"/><path class="cls-1" d="M83.43,168v11.37H78.84v-7.44H54.12V168H60l0-4.3H52.25v-4H86.16v4H78.34V168ZM78.3,150a7.32,7.32,0,0,1-.74,3.27,8.56,8.56,0,0,1-4.84,4.53,9.18,9.18,0,0,1-3.51.68,9.41,9.41,0,0,1-3.54-.68,8.6,8.6,0,0,1-4.86-4.53,7.57,7.57,0,0,1,0-6.53A10.16,10.16,0,0,1,62.76,144a9.36,9.36,0,0,1,2.91-1.84,9.22,9.22,0,0,1,3.54-.68,9,9,0,0,1,3.51.68,9.55,9.55,0,0,1,2.9,1.84,10.34,10.34,0,0,1,1.94,2.73A7.31,7.31,0,0,1,78.3,150ZM64.2,168h9.93v-4.3H64.25Zm9.6-18a4.23,4.23,0,0,0-1.35-3.16,4.46,4.46,0,0,0-3.24-1.3,4.56,4.56,0,0,0-3.27,1.3A4.2,4.2,0,0,0,64.58,150a4.28,4.28,0,0,0,1.36,3.19,4.54,4.54,0,0,0,3.27,1.32,4.44,4.44,0,0,0,3.24-1.32A4.31,4.31,0,0,0,73.8,150Z"/><path class="cls-1" d="M94.1,165.68H128v4H113.32v9.51h-4.59v-9.51H94.1Zm7.23-18h19.39V143h4.55v17.74H96.82V143h4.51Zm19.39,4H101.33v5.09h19.39Z"/><path class="cls-2" d="M97.66,56.59c-9.55-6.5-21.79-3.85-28.21,5.92a19.86,19.86,0,0,1-35.9-5.46h0l-.06-.2-.06-.26a25.24,25.24,0,0,1-1-7.88C32.41,30.91,50.67,11.1,77,11.1c26.93,0,42.33,20.5,46.3,31.89-.07-.2-.13-.4-.2-.6A56.71,56.71,0,0,0,12.72,60.78c0,28,20.19,52,48.19,52,22.33,0,37.34-12.53,44.23-29.78C108.92,73.51,106.24,62.42,97.66,56.59Z"/><path class="cls-3" d="M123.61,44.1C120.3,33,104.78,11.1,77,11.1c-26.29,0-44.55,19.81-44.55,37.61a25.24,25.24,0,0,0,1,7.88,16.13,16.13,0,0,1-.53-4C32.9,34,51.46,21.18,70.53,21.18a46.75,46.75,0,0,1,46.75,46.74,51.51,51.51,0,0,1-28.57,46.17v0a56.73,56.73,0,0,0,37.39-53.33A56.14,56.14,0,0,0,123.61,44.1Z"/></svg>