<svg xmlns="http://www.w3.org/2000/svg" xmlns:xlink="http://www.w3.org/1999/xlink" viewBox="0 0 132.18 37.41"><defs><style>.cls-1{isolation:isolate;}.cls-2{fill:#666565;}.cls-3{fill:#727171;}.cls-4{fill:#6f92cc;}.cls-5{fill:#417cc0;}.cls-6{fill:#5d95cf;}.cls-7{opacity:0.7;mix-blend-mode:multiply;fill:url(#linear-gradient);}</style><linearGradient id="linear-gradient" x1="25.54" y1="13.31" x2="36" y2="2.85" gradientUnits="userSpaceOnUse"><stop offset="0" stop-color="#417cc0" stop-opacity="0.96"/><stop offset="0.17" stop-color="#558ac7" stop-opacity="0.89"/><stop offset="0.48" stop-color="#8cafd9" stop-opacity="0.7"/><stop offset="0.88" stop-color="#e3ecf6" stop-opacity="0.4"/><stop offset="1" stop-color="#fff" stop-opacity="0.3"/></linearGradient></defs><title>대지 1</title><g class="cls-1"><g id="레이어_1" data-name="레이어 1"><path class="cls-2" d="M128.48,15.54a4.5,4.5,0,0,1-4,2.52,4.69,4.69,0,0,1-4.58-4.89,4.65,4.65,0,0,1,4.56-4.85,4.45,4.45,0,0,1,4,2.6h3a7.39,7.39,0,0,0-14.43,2.25,7.37,7.37,0,0,0,7.46,7.41,7.16,7.16,0,0,0,7-5Zm-24.94-2.37a4.66,4.66,0,0,1,4.62-4.85,4.71,4.71,0,0,1,4.6,4.89,4.62,4.62,0,1,1-9.22,0Zm-2.87.15a7.48,7.48,0,1,0,7.47-7.52,7.32,7.32,0,0,0-7.47,7.5Zm-13.51-.15a4.62,4.62,0,1,1,9.22,0,4.62,4.62,0,1,1-9.22,0Zm-2.86.15A7.48,7.48,0,1,0,91.76,5.8a7.32,7.32,0,0,0-7.46,7.5Zm-14.43,7L69.79,8.9l4,11.41h1.89l4-11.41-.08,11.41h2.66V6.07H78.35l-3.6,10.22L71.1,6.07H67.23V20.31ZM59.4,14.92h5.33V12.43H59.4Z"/><polygon class="cls-2" points="48.32 20.31 51.18 20.31 51.18 13.92 55.94 20.31 59.44 20.31 53.76 13.17 58.92 6.07 55.9 6.07 51.18 12.67 51.18 6.07 48.32 6.07 48.32 20.31"/><path class="cls-3" d="M131.54,28.39h-.73v-2h-.56V31.3h.56V28.86h.73Zm-2.78.54h-.56v.92h-1.26l.08.46a16,16,0,0,0,3-.19l0-.41a11.82,11.82,0,0,1-1.21.11Zm-1.48.21a2,2,0,0,0,1.21-1.06,1.83,1.83,0,0,0,1.17,1l.27-.44a1.47,1.47,0,0,1-1.17-1.33h1v-.46h-2.64v.46h1A1.54,1.54,0,0,1,127,28.7Zm-5.2-1.53V26.4h-.56v2.88h.56V28.07h.7v-.46Zm-1.56,1.74c-1,0-1.62.37-1.62,1s.64,1,1.62,1,1.62-.37,1.62-1-.64-1-1.62-1m0,1.51c-.66,0-1.07-.19-1.07-.53s.41-.54,1.07-.54,1.06.2,1.06.54-.41.53-1.06.53m-2.07-4.12v.46h1.69c-.1.76-.77,1.38-1.91,1.7l.23.45a2.73,2.73,0,0,0,2.28-2.61Zm-5.31-.34v1.91h-.56V26.53h-.52v4.55h.52V28.77h.56V31.3h.54V26.4Zm-3.46.62v.45h1.38a2.9,2.9,0,0,1-1.58,2.41l.32.4A3.45,3.45,0,0,0,111.61,27Zm-6.62,1.62v-.9h-.56v.9h-1.74v.45h4.42v-.45Zm-.11.83c-1,0-1.72.35-1.72.92s.67.91,1.72.91,1.72-.34,1.72-.91-.67-.92-1.72-.92m0,1.4c-.72,0-1.17-.18-1.17-.48s.45-.49,1.17-.49,1.16.18,1.16.49-.43.48-1.16.48m1.55-2.52a4.57,4.57,0,0,0,.14-1.31v-.41h-3.37v.45h2.82a4.28,4.28,0,0,1-.14,1.21Zm-11.09,2.4V29.6h-.57v1.61h3.35v-.46ZM94.7,28a1.3,1.3,0,1,0-1.3,1.23A1.23,1.23,0,0,0,94.7,28m-2,0a.71.71,0,0,1,.75-.74.72.72,0,0,1,.76.74.73.73,0,0,1-.76.75.72.72,0,0,1-.75-.75m3.4-1.55h-.56V30h.56Zm-8.23,1.9h-.75V26.39H86.5v4.92h.57V28.77h.75ZM84,28.66h1.68V26.83H83.44v.46h1.69v.92H83.45v1.94h.41A12.9,12.9,0,0,0,86.18,30l-.06-.46a10.83,10.83,0,0,1-2.11.16ZM77,29v-.46c.91-.06,1.48-.42,1.48-1s-.69-1-1.75-1-1.75.38-1.75,1,.56.92,1.46,1V29H74.5v.45h4.44V29Zm-1.45-1.44c0-.35.45-.55,1.18-.55s1.16.2,1.16.55-.44.54-1.16.54-1.18-.2-1.18-.54m.08,2.26h-.57v1.42h3.39v-.46H75.63ZM68.2,29.6c-1,0-1.66.32-1.66.85s.63.85,1.66.85,1.65-.31,1.65-.85-.63-.85-1.65-.85m0,1.27c-.67,0-1.07-.14-1.07-.42s.4-.42,1.07-.42,1.06.14,1.06.42-.4.42-1.06.42m.08-2.4c0-.55-.46-.92-1.12-.92s-1.13.37-1.13.92.46.92,1.13.92,1.12-.37,1.12-.92m-1.73,0c0-.3.24-.49.61-.49s.6.19.6.49-.24.49-.6.49-.61-.18-.61-.49m1.94-1.58H67.43v-.54h-.55v.54H65.77v.45h2.72Zm.78,2.66h.56V26.4h-.56v1.13h-.74V28h.74v.52h-.75V29h.75Zm-7.81-.75v-.45H60.8A7.16,7.16,0,0,0,60.9,27v-.37H57.57v.45h2.78a6.47,6.47,0,0,1-.11,1.28H57v.45H59v.8H57.46v.45h2.91V31.3h.56V29.6H59.51v-.8ZM52.1,28V26.4h-.56v3.68h.56V28.42h.69V28Zm-2.55,1.83H49v1.42h3.3v-.46H49.55Zm1.36-1.23c0-.55-.49-.93-1.19-.93s-1.19.38-1.19.93.48.93,1.19.93,1.19-.37,1.19-.93m-1.85,0c0-.31.27-.5.66-.5s.65.19.65.5-.26.49-.65.49-.66-.18-.66-.49M51.17,27H50v-.57h-.56V27H48.27v.44h2.9Z"/><path class="cls-4" d="M36,2.85A7.4,7.4,0,0,0,25.54,13.31l5.23,5.24L36,13.31A7.39,7.39,0,0,0,36,2.85"/><path class="cls-5" d="M16,12.65V8.2a7.41,7.41,0,0,0-14.81,0V28.89h0a7.41,7.41,0,0,0,14.81,0h0V24.44a10.14,10.14,0,0,1,0-11.79"/><path class="cls-6" d="M25.54,2.85,17,11.35a10.18,10.18,0,0,0,0,14.39l8.51,8.51A7.4,7.4,0,1,0,36,23.78l-5.23-5.23-5.23-5.24a7.39,7.39,0,0,1,0-10.46"/><path class="cls-7" d="M36,2.85A7.4,7.4,0,0,0,25.54,13.31l5.23,5.24L36,13.31A7.39,7.39,0,0,0,36,2.85"/></g></g></svg>